<?xml version="1.0" encoding="UTF-8"?><svg id="Layer_2" xmlns="http://www.w3.org/2000/svg" viewBox="0 0 218.85 148.17"><defs><style>.cls-1{fill:#e9bd2d;}</style></defs><g id="Layer_1-2"><g><path class="cls-1" d="M13.08,66.91c17.93-9.63,37.61,2.87,49.76,16.16,15.57,17.05,21.18,35.92,18.36,58.64-.39,3.13-2.3,7.23-5.32,6.32-13.22-20.65-28.09-21.64-49.26-29.52C13.59,113.68,.66,104.33,.02,89.46c-.4-9.26,4.89-18.16,13.06-22.55Z"/><path class="cls-1" d="M198.57,5.29c-27.81-14.94-58.33,4.45-77.15,25.06-24.15,26.44-32.84,55.7-28.47,90.93,.6,4.86,3.57,11.22,8.26,9.81,20.5-32.02,43.55-33.56,76.39-45.77,20.19-7.51,40.23-22,41.22-45.06,.62-14.36-7.58-28.16-20.24-34.96Z"/></g></g></svg>