<svg width="746" height="505" viewBox="0 0 746 505" fill="none" xmlns="http://www.w3.org/2000/svg">
<g clip-path="url(#clip0_143_32)">
<path d="M44.5861 228.046C105.705 195.224 172.788 237.827 214.204 283.123C267.278 341.234 286.401 405.547 276.789 482.983C275.459 493.651 268.949 507.624 258.654 504.523C213.591 434.143 162.903 430.768 90.7403 403.911C46.3246 387.45 2.24975 355.582 0.0681599 304.902C-1.29533 273.341 16.7368 243.008 44.5861 228.046Z" fill="#F2C762"/>
<path d="M676.871 18.0296C582.074 -32.8896 478.04 33.1963 413.888 103.44C331.567 193.554 301.945 293.28 316.841 413.352C318.886 429.916 329.01 451.593 344.997 446.787C414.876 337.655 493.447 332.406 605.39 290.792C674.212 265.196 742.523 215.81 745.898 137.216C748.011 88.2736 720.06 41.2398 676.905 18.0637L676.871 18.0296Z" fill="#F2C762"/>
</g>
<defs>
<clipPath id="clip0_143_32">
<rect width="746" height="505" fill="white"/>
</clipPath>
</defs>
</svg>
